/* XPM */
static char * right_active_xpm[] = {
"4 21 3 1",
" 	c None",
".	c #838c88",
"@	c #DEDEDE s active_color_2",
"@@@.",
"@@@.",
"@@@.",
"@@@.",
"@@@.",
"@@@.",
"@@@.",
"@@@.",
"@@@.",
"@@@.",
"@@@.",
"@@@.",
"@@@.",
"@@@.",
"@@@.",
"@@@.",
"@@@.",
"@@@.",
"@@@.",
"@@@.",
"@@@."};
