/* XPM */
static char * top_right_inactive_xpm[] = {
"4 30 3 1",
" 	c None",
".	c #595F5C",
"@	c #DEDEDE s active_color_2",
"... ",
"@@..",
"@@@.",
"@@@.",
"@@@.",
"@@@.",
"@@@.",
"@@@.",
"@@@.",
"@@@.",
"@@@.",
"@@@.",
"@@@.",
"@@@.",
"@@@.",
"@@@.",
"@@@.",
"@@@.",
"@@@.",
"@@@.",
"@@@.",
"@@@.",
"@@@.",
"@@@.",
"@@@.",
"@@@.",
"@@@.",
"@@@.",
"@@@.",
"@@@."};
