<?xml version="1.0" encoding="UTF-8" standalone="no"?>
<!-- Created with Inkscape (http://www.inkscape.org/) -->

<svg
   xmlns:dc="http://purl.org/dc/elements/1.1/"
   xmlns:cc="http://creativecommons.org/ns#"
   xmlns:rdf="http://www.w3.org/1999/02/22-rdf-syntax-ns#"
   xmlns:svg="http://www.w3.org/2000/svg"
   xmlns="http://www.w3.org/2000/svg"
   xmlns:sodipodi="http://sodipodi.sourceforge.net/DTD/sodipodi-0.dtd"
   xmlns:inkscape="http://www.inkscape.org/namespaces/inkscape"
   width="16"
   height="16"
   viewBox="0 0 16 16"
   version="1.1"
   id="svg8"
   inkscape:version="0.92.2 2405546, 2018-03-11"
   sodipodi:docname="check2p.svg">
  <defs
     id="defs2" />
  <sodipodi:namedview
     id="base"
     pagecolor="#ffffff"
     bordercolor="#666666"
     borderopacity="1.0"
     inkscape:pageopacity="0.0"
     inkscape:pageshadow="2"
     inkscape:zoom="22.4"
     inkscape:cx="-5.7455357"
     inkscape:cy="10.238417"
     inkscape:document-units="px"
     inkscape:current-layer="layer1"
     showgrid="false"
     units="px"
     inkscape:pagecheckerboard="true"
     inkscape:window-width="1617"
     inkscape:window-height="825"
     inkscape:window-x="186"
     inkscape:window-y="109"
     inkscape:window-maximized="0" />
  <metadata
     id="metadata5">
    <rdf:RDF>
      <cc:Work
         rdf:about="">
        <dc:format>image/svg+xml</dc:format>
        <dc:type
           rdf:resource="http://purl.org/dc/dcmitype/StillImage" />
        <dc:title></dc:title>
      </cc:Work>
    </rdf:RDF>
  </metadata>
  <g
     inkscape:label="Capa 1"
     inkscape:groupmode="layer"
     id="layer1"
     transform="translate(0,-292.76665)">
    <g
       id="g818">
      <rect
         y="292.76666"
         x="0"
         height="16"
         width="16"
         id="rect4504-3"
         style="fill:#cc3d97;fill-opacity:1;fill-rule:evenodd;stroke-width:0.52631575" />
      <g
         style="fill:#ffffff;fill-opacity:1"
         transform="matrix(0.06109741,0,0,0.06554152,1.9999799,294.33024)"
         id="g4">
        <path
           inkscape:connector-curvature="0"
           id="path2"
           d="m 56.084,189.137 c -1.735,0.897 -3.807,1.012 -5.891,-1.071 L 2.651,139.517 c -4.204,-4.291 -3.225,-9.943 1.648,-13.462 6.228,-4.498 14.555,-11.83 21.582,-22.55 3.291,-5.026 7.995,-5.363 11.248,-0.315 l 11.727,18.205 c 3.258,5.053 7.006,11.389 9.018,10.677 0.816,-0.288 1.806,-0.995 2.986,-2.393 L 156.169,9.877 c 3.742,-4.699 9.023,-4.194 11.803,1.131 l 27.054,51.894 c 2.779,5.325 1.235,12.695 -3.448,16.459 L 69.1,177.786 c -4.678,3.764 -9.828,9.714 -13.016,11.351 z"
           style="fill:#ffffff;fill-opacity:1" />
      </g>
    </g>
  </g>
</svg>
